# xmcd
#
# Track frame offsets: 
#        150
#        12640
#        25951
#        46665
#        59825
#        77931
#        94547
#        116709
#        129476
#        141284
#        154679
#        175170
#        191936
#        207081
#        223698
#        254873
#
# Disc length: 3711 seconds
#
# Revision: 0
# Processed by: cddbd v1.5.2PL0 Copyright (c) Steve Scherf et al.
# Submitted via: ExactAudioCopy v1.0b4
#
DISCID=f20e7d10
DTITLE=Big Jon Atkinson and Bob Corritore  - House Party at Big Jon's
DYEAR=2016
DGENRE=Blues
TTITLE0=Goin' Back to Tennessee
TTITLE1=Here Comes My Baby
TTITLE2=It Wasn't Easy
TTITLE3=She's My Crazy Little Baby
TTITLE4=At the Meeting
TTITLE5=Mojo Hand
TTITLE6=Mojo in My Bread
TTITLE7=Mad About It
TTITLE8=Empty Bedroom
TTITLE9=I'm Gonna Miss You Like the Devil
TTITLE10=You Want Me to Trust You
TTITLE11=Mississippi Plow
TTITLE12=El Centro
TTITLE13=I'm a King Bee
TTITLE14=Somebody Done Changed the Lock on My Door
TTITLE15=My Feelings Won't Be Hurt
EXTD=
EXTT0=
EXTT1=
EXTT2=
EXTT3=
EXTT4=
EXTT5=
EXTT6=
EXTT7=
EXTT8=
EXTT9=
EXTT10=
EXTT11=
EXTT12=
EXTT13=
EXTT14=
EXTT15=
PLAYORDER=
